<?xml version="1.0" encoding="UTF-8"?>
<svg version="1.1" xmlns="http://www.w3.org/2000/svg" width="650" height="500">
<path d="M0 0 C1.719841 -0.01052147 1.719841 -0.01052147 3.47442627 -0.02125549 C7.14965802 -0.03864544 10.82472863 -0.04510683 14.5 -0.046875 C16.38398499 -0.04788712 16.38398499 -0.04788712 18.30603027 -0.04891968 C36.57015481 -0.03331505 54.43254402 0.3205838 72.5 3.203125 C74.22694092 3.46851074 74.22694092 3.46851074 75.98876953 3.73925781 C134.24037061 12.86594622 189.35446633 34.19543309 232.5 75.203125 C233.13164063 75.78191406 233.76328125 76.36070313 234.4140625 76.95703125 C261.77988531 102.83135187 278.33874859 142.38875347 279.703125 179.66796875 C280.35283959 217.02035046 265.84134425 248.36385724 244.17285156 278.10302734 C237.05498684 287.88504013 230.41282039 297.96558744 224.9375 308.765625 C224.61507324 309.39581543 224.29264648 310.02600586 223.96044922 310.67529297 C218.87094571 321.08301075 217.67807716 332.23121232 221.125 343.390625 C223.2642275 349.10025333 226.0356414 354.19420349 229.5 359.203125 C229.93957031 359.83992188 230.37914062 360.47671875 230.83203125 361.1328125 C235.59743348 367.31272894 242.42039556 370.83472242 249.0703125 374.6953125 C255.26148139 378.47539912 258.09048005 382.25542233 260.07421875 389.21875 C261.64021397 396.51714974 260.16631746 402.79242957 256.5 409.203125 C252.35503391 413.97671154 247.79038443 416.67838395 241.51171875 417.6796875 C228.5768476 418.25727282 217.48609489 412.49337316 207.703125 404.22265625 C206.61257813 403.22298828 206.61257813 403.22298828 205.5 402.203125 C204.54609375 401.34074219 203.5921875 400.47835938 202.609375 399.58984375 C183.22950697 381.48214359 173.84611983 357.06180914 172.5546875 330.82958984 C172.40937999 323.8509373 173.23319325 317.0542569 174.5 310.203125 C174.71269531 309.05070312 174.92539062 307.89828125 175.14453125 306.7109375 C179.19749667 289.74039264 189.56292049 274.30883787 199.5 260.203125 C220.00837819 230.87742643 237.7079852 203.67613406 231.36621094 166.44116211 C227.54213106 146.58521657 218.8615436 129.3551602 205.5 114.203125 C204.74074219 113.29949219 203.98148438 112.39585937 203.19921875 111.46484375 C164.9362 67.18995953 96.61769582 51.09766002 40.9296875 46.64453125 C32.64090481 46.08557911 24.36735895 45.95951119 16.0625 45.953125 C15.26241516 45.95245026 14.46233032 45.95177551 13.63800049 45.95108032 C-11.80005657 45.98474269 -36.60465859 48.94764933 -61.5 54.203125 C-62.56492676 54.42339355 -63.62985352 54.64366211 -64.72705078 54.87060547 C-121.10699064 66.66388774 -176.42160087 88.8180059 -221.5 125.203125 C-222.51964844 126.0178125 -223.53929687 126.8325 -224.58984375 127.671875 C-239.84458207 140.07716569 -253.18124132 154.13328243 -264.5 170.203125 C-265.12527588 171.07735107 -265.12527588 171.07735107 -265.76318359 171.96923828 C-286.54635634 201.32579065 -297.01931282 238.43820557 -291.68017578 274.26196289 C-288.25599122 293.50424306 -280.51720469 311.53252536 -267.5 326.203125 C-266.63375 327.29947266 -266.63375 327.29947266 -265.75 328.41796875 C-242.54677097 356.87192849 -199.16305484 368.60329114 -164.3046875 372.56640625 C-162.63309781 372.72594544 -160.96000148 372.8715297 -159.28515625 372.9921875 C-157.5 373.203125 -157.5 373.203125 -155.5 374.203125 C-154.87312317 375.89094543 -154.87312317 375.89094543 -154.33911133 378.10864258 C-154.0341851 379.3504705 -154.0341851 379.3504705 -153.72309875 380.61738586 C-153.51154648 381.51837509 -153.2999942 382.41936432 -153.08203125 383.34765625 C-152.86052902 384.26898849 -152.63902679 385.19032074 -152.41081238 386.13957214 C-151.94364443 388.09312064 -151.48073838 390.04769241 -151.02172852 392.00317383 C-150.31720891 394.99562388 -149.59414812 397.98315948 -148.86914062 400.97070312 C-148.41814046 402.866919 -147.96823455 404.76339555 -147.51953125 406.66015625 C-147.1930938 408.00253105 -147.1930938 408.00253105 -146.86006165 409.37202454 C-146.66623398 410.2093663 -146.47240631 411.04670807 -146.27270508 411.90942383 C-146.09886795 412.64365067 -145.92503082 413.3778775 -145.7459259 414.13435364 C-145.47406459 416.42129821 -145.80931891 418.02178908 -146.5 420.203125 C-199.2618852 421.24845953 -256.89501241 401.61329922 -295.5 365.203125 C-324.51042896 337.26329646 -339.03078328 297.27905364 -339.78344727 257.53271484 C-340.22347954 204.26292487 -318.1649307 157.47831384 -282.6875 118.61328125 C-280.56733383 116.27731246 -278.5030269 113.89985625 -276.4375 111.515625 C-273.381537 108.07465879 -270.17892966 105.02383882 -266.6640625 102.05859375 C-264.226442 99.96857617 -261.904302 97.77489092 -259.5625 95.578125 C-247.84059362 84.91005529 -234.87313567 75.67783496 -221.5 67.203125 C-220.92668945 66.83799805 -220.35337891 66.47287109 -219.76269531 66.09667969 C-208.0872709 58.72098665 -195.81888202 52.42383848 -183.5 46.203125 C-182.62037598 45.75791504 -181.74075195 45.31270508 -180.83447266 44.85400391 C-125.95664762 17.30539842 -61.48437676 0.25358515 0 0 Z " fill="#033492" transform="translate(367.5,31.796875)"/>
<path d="M0 0 C27.04455064 20.72934825 42.71129435 52.38899805 47.50585938 85.70507812 C50.79812874 111.66041099 47.23160198 137.02730561 39.22021484 161.72021484 C38.89029541 162.76072998 38.89029541 162.76072998 38.55371094 163.82226562 C30.54825296 188.6151505 16.1808494 210.37430369 -1.06494141 229.64599609 C-3.09974893 231.92059807 -5.00491366 234.23293818 -6.77978516 236.72021484 C-4.4074893 237.9340909 -2.03210016 239.14123395 0.34521484 240.34521484 C0.99103516 240.67650391 1.63685547 241.00779297 2.30224609 241.34912109 C14.93092906 247.72359916 27.92901269 252.4717618 41.34521484 256.84521484 C42.91441494 257.36156584 44.48342623 257.87849098 46.05224609 258.39599609 C51.66119652 260.24437301 57.27252598 262.08537797 62.88745117 263.91552734 C63.95503662 264.26615234 65.02262207 264.61677734 66.12255859 264.97802734 C67.03513428 265.27596191 67.94770996 265.57389648 68.88793945 265.88085938 C75.65660822 268.31681491 79.13713307 272.43121935 82.22021484 278.72021484 C84.50360444 286.14482127 83.19104391 292.75474793 80.22021484 299.72021484 C78.49370251 302.70276825 76.52370166 305.45537905 74.47021484 308.22021484 C73.93452881 308.95780029 73.39884277 309.69538574 72.84692383 310.45532227 C71.31688774 312.55296358 69.77102463 314.63790934 68.22021484 316.72021484 C67.50478516 317.69603516 66.78935547 318.67185547 66.05224609 319.67724609 C61.1262404 326.2343795 57.16651486 330.20833151 48.84521484 331.59521484 C43.18089999 331.86494412 38.34959403 329.80966838 33.84521484 326.47021484 C28.8775506 321.26599516 28.06489837 317.46520157 28.15771484 310.47021484 C28.20798828 309.45443359 28.25826172 308.43865234 28.31005859 307.39208984 C28.44717425 304.49036088 28.44717425 304.49036088 26.22021484 301.72021484 C24.05883786 300.62318016 24.05883786 300.62318016 21.47802734 299.77490234 C20.50438232 299.42500244 19.5307373 299.07510254 18.52758789 298.71459961 C16.95231323 298.16050415 16.95231323 298.16050415 15.34521484 297.59521484 C-6.03128038 289.81513333 -25.94665853 279.79991296 -45.77978516 268.72021484 C-46.86130859 269.43564453 -47.94283203 270.15107422 -49.05712891 270.88818359 C-87.66896147 296.06238039 -130.51015872 311.72502045 -175.84228516 319.59521484 C-176.86696899 319.77564331 -176.86696899 319.77564331 -177.91235352 319.9597168 C-186.29543898 321.30430163 -193.64699946 321.83655902 -200.77978516 316.72021484 C-208.7188763 309.46367 -210.63156144 300.0974515 -212.96728516 289.97021484 C-213.37624023 288.29572266 -213.37624023 288.29572266 -213.79345703 286.58740234 C-215.65335948 278.5884234 -217.28097571 270.40039715 -214.71728516 262.40771484 C-210.92176069 257.14295511 -206.32775222 252.87573844 -199.77978516 251.72021484 C-193.33300411 251.44842812 -188.53746219 252.59819606 -183.54150391 256.76318359 C-180.2741662 260.39275386 -176.77978516 265.6915379 -176.77978516 270.72021484 C-169.70126075 271.00306572 -163.62203326 270.05461628 -156.77978516 268.28271484 C-155.73798096 268.01467041 -154.69617676 267.74662598 -153.62280273 267.47045898 C-130.73759903 261.38292969 -107.1776477 252.64657944 -87.12744141 239.82958984 C-83.77978516 237.72021484 -83.77978516 237.72021484 -81.77978516 237.72021484 C-82.1264624 237.28378662 -82.47313965 236.8473584 -82.83032227 236.39770508 C-99.54459107 215.24582416 -110.93204153 193.90176198 -117.77978516 167.72021484 C-118.08658203 166.55103516 -118.39337891 165.38185547 -118.70947266 164.17724609 C-129.04523479 118.731859 -127.23424442 64.16220408 -101.77978516 23.72021484 C-98.98738795 19.55685153 -95.92406644 15.62243964 -92.77978516 11.72021484 C-92.29123047 11.06666016 -91.80267578 10.41310547 -91.29931641 9.73974609 C-69.0149214 -18.81826158 -27.90772966 -20.06753346 0 0 Z M-58.77978516 42.72021484 C-78.7746727 70.82219129 -81.73163461 109.1761911 -76.18652344 142.49365234 C-71.7853463 166.58653082 -63.79971334 190.25474599 -45.77978516 207.72021484 C-27.98712193 200.15936026 -13.9983526 173.16622123 -6.81494141 156.20068359 C4.68133251 127.5866754 6.7052301 95.43256119 -5.05322266 66.57958984 C-10.95711882 52.9195948 -20.89399081 38.50996436 -34.90478516 32.34521484 C-45.15269947 30.11740738 -52.470008 34.86405904 -58.77978516 42.72021484 Z " fill="#033492" transform="translate(453.77978515625,129.27978515625)"/>
</svg>
